<?xml version="1.0" encoding="utf-8"?>
<!-- Generator: Adobe Illustrator 16.0.0, SVG Export Plug-In . SVG Version: 6.00 Build 0)  -->
<!DOCTYPE svg PUBLIC "-//W3C//DTD SVG 1.1//EN" "http://www.w3.org/Graphics/SVG/1.1/DTD/svg11.dtd">
<svg version="1.1" id="Capa_1" xmlns="http://www.w3.org/2000/svg" xmlns:xlink="http://www.w3.org/1999/xlink" x="0px" y="0px"
	 width="300px" height="300px" viewBox="0 0 300 300" enable-background="new 0 0 300 300" xml:space="preserve">
<path fill="#FFFFFF" d="M164.487,15.557l33.836,68.561c2.354,4.769,6.902,8.073,12.166,8.836l75.663,10.995
	c13.254,1.927,18.542,18.21,8.955,27.553l-54.75,53.367c-3.805,3.711-5.545,9.061-4.644,14.299l12.923,75.356
	c2.265,13.198-11.59,23.261-23.442,17.034l-67.672-35.576c-4.706-2.472-10.331-2.472-15.037,0l-67.673,35.576
	c-11.852,6.232-25.707-3.836-23.441-17.034l12.923-75.356c0.9-5.238-0.839-10.588-4.644-14.299L4.9,131.502
	c-9.587-9.349-4.299-25.632,8.955-27.553l75.663-10.995c5.263-0.763,9.813-4.067,12.165-8.836l33.837-68.561
	C141.44,3.548,158.561,3.548,164.487,15.557z"/>
</svg>
